<?xml version="1.0" encoding="UTF-8"?>
<svg width="28px" height="28px" viewBox="0 0 28 28" version="1.1" xmlns="http://www.w3.org/2000/svg" xmlns:xlink="http://www.w3.org/1999/xlink">
    <!-- Generator: Sketch 47.1 (45422) - http://www.bohemiancoding.com/sketch -->
    <title>node_single</title>
    <desc>Created with Sketch.</desc>
    <defs>
        <polygon id="path-1" points="0 0.181875556 0 28 27.8181244 28 27.8181244 0.181875556"></polygon>
    </defs>
    <g id="Page-1" stroke="none" stroke-width="1" fill="none" fill-rule="evenodd">
        <g id="17_09_28_GC_Blockexplorer_Network_1200_dark" transform="translate(-792.000000, -569.000000)">
            <g id="Page-1-Copy" transform="translate(0.000000, 280.000000)">
                <g id="Map-of-explorer-connections">
                    <g id="Map-+-Pins">
                        <g id="Group-2" transform="translate(354.000000, 61.000000)">
                            <g id="node_single" transform="translate(438.000000, 228.000000)">
                                <g id="Group-3">
                                    <mask id="mask-2" fill="white">
                                        <use xlink:href="#path-1"></use>
                                    </mask>
                                    <g id="Clip-2"></g>
                                    <path d="M27.8181244,14.0910311 C27.8181244,21.7729867 21.5909244,28.0001867 13.9089689,28.0001867 C6.22701333,28.0001867 -0.000186666667,21.7729867 -0.000186666667,14.0910311 C-0.000186666667,6.40907556 6.22701333,0.181875556 13.9089689,0.181875556 C21.5909244,0.181875556 27.8181244,6.40907556 27.8181244,14.0910311" id="Fill-1" fill="#14C7DB" mask="url(#mask-2)"></path>
                                </g>
                                <path d="M19,14.0003086 C19,16.7615256 16.7615256,19 13.9996914,19 C11.2384744,19 9,16.7615256 9,14.0003086 C9,11.2384744 11.2384744,9 13.9996914,9 C16.7615256,9 19,11.2384744 19,14.0003086" id="Fill-4" fill="#FFFFFF"></path>
                            </g>
                        </g>
                    </g>
                </g>
            </g>
        </g>
    </g>
</svg>